<svg xmlns="http://www.w3.org/2000/svg" version="1.1" xmlns:xlink="http://www.w3.org/1999/xlink" xmlns:svgjs="http://svgjs.dev/svgjs" width="1500" height="1500" viewBox="0 0 1500 1500"><rect width="1500" height="1500" fill="#ffbb2b"></rect><g transform="matrix(0.6666666666666666,0,0,0.6666666666666666,250,250)"><svg viewBox="0 0 280 280" data-background-color="#ffbb2b" preserveAspectRatio="xMidYMid meet" height="1500" width="1500" xmlns="http://www.w3.org/2000/svg" xmlns:xlink="http://www.w3.org/1999/xlink"><g id="tight-bounds" transform="matrix(1,0,0,1,0,0)"><svg viewBox="0 0 280 280" height="280" width="280"><g><svg viewBox="0 0 280 280" height="280" width="280"><g><svg viewBox="0 0 280 280" height="280" width="280"><g id="textblocktransform"><svg viewBox="0 0 280 280" height="280" width="280" id="textblock"><g><svg viewBox="0 0 280 280" height="280" width="280"><g transform="matrix(1,0,0,1,93.44279507298698,90.50252531694167)"><svg viewBox="0 0 93.11440985402604 98.99494936611666" height="98.99494936611666" width="93.11440985402604"><g id="icon-0"><svg xmlns="http://www.w3.org/2000/svg" xmlns:xlink="http://www.w3.org/1999/xlink" version="1.1" x="0" y="0" viewBox="17.6 15.6 64.61905377933451 68.7" enable-background="new 0 0 100 100" xml:space="preserve" height="98.99494936611666" width="93.11440985402604" class="icon-jxe-0" data-fill-palette-color="accent" id="jxe-0"><path d="M53.2 51.2V40.4C53.2 38.6 51.7 37.2 50 37.2S46.8 38.7 46.8 40.4V52.7C46.8 52.8 46.8 52.9 46.9 53 46.9 53.1 47 53.2 47 53.3S47.1 53.5 47.1 53.6 47.1 53.7 47.2 53.8L53 63.8C53.6 64.8 54.7 65.4 55.8 65.4 56.3 65.4 56.9 65.3 57.4 65 59 64.1 59.5 62.1 58.6 60.6z" fill="#5a682d" data-fill-palette-color="accent"></path><path d="M79.2 25.5H64.9V24.7C64.9 20.9 62.1 15.6 55.8 15.6H44.2C39.2 15.6 35.1 19.7 35.1 24.7V25.5H20.8C19 25.5 17.6 27 17.6 28.7V75.4C17.6 77.2 19.1 78.6 20.8 78.6H23.4V81.1C23.4 82.9 24.9 84.3 26.6 84.3S29.8 82.8 29.8 81.1V78.6H70V80.8C70 82.6 71.5 84 73.2 84 75 84 76.4 82.5 76.4 80.8V78.6H79C80.8 78.6 82.2 77.1 82.2 75.4V28.7C82.4 26.9 81 25.5 79.2 25.5M41.6 24.7C41.6 23.3 42.8 22.1 44.2 22.1H55.9C58.3 22.1 58.5 24.3 58.5 24.7V25.5H41.6zM24.1 32H76V72.2H24.1z" fill="#5a682d" data-fill-palette-color="accent"></path></svg></g></svg></g><g id="text-0"><path d="M33.118 101.692l-1.201 3.419-25.815-9.068 1.201-3.419zM12.395 85.536l-6.755 19.232-2.873-1.009 6.756-19.232z" fill="#e26026" data-fill-palette-color="primary"></path><path d="M35.486 69.223v0l-2.702-0.912 0.467-0.733c-1.212-1.423-1.919-2.9-2.118-4.432-0.194-1.528 0.25-3.062 1.333-4.603v0c0.268-0.381 0.539-0.703 0.814-0.965 0.274-0.263 0.535-0.482 0.781-0.659v0l2.935 1.796c-0.305 0.225-0.613 0.501-0.924 0.827-0.316 0.323-0.63 0.704-0.94 1.145v0c-0.923 1.312-1.365 2.709-1.326 4.193 0.048 1.482 0.608 2.93 1.68 4.343zM46.263 76.597l-2.039 2.898-17.456-12.279 1.988-2.825 5.054 3.763 0.362-0.063z" fill="#e26026" data-fill-palette-color="primary"></path><path d="M66.924 53.947l-2.646 2.358-14.197-15.936 2.646-2.357zM49.069 36.578v0c-0.542 0.483-1.075 0.699-1.6 0.65-0.525-0.049-1.011-0.325-1.458-0.827v0l-0.073-0.082c-0.456-0.512-0.676-1.029-0.66-1.551 0.016-0.522 0.295-1.025 0.836-1.507v0c0.547-0.487 1.083-0.711 1.609-0.671 0.521 0.044 1.009 0.322 1.465 0.834v0l0.073 0.082c0.456 0.512 0.676 1.029 0.66 1.551-0.021 0.527-0.305 1.034-0.852 1.521z" fill="#e26026" data-fill-palette-color="primary"></path><path d="M92.99 38.593v0c-1.173 0.585-2.29 0.896-3.349 0.934-1.051 0.04-2.027-0.172-2.928-0.638-0.901-0.465-1.685-1.134-2.35-2.007v0l-1.036 0.516-0.563-3.433c0.627 1.123 1.362 1.95 2.207 2.48 0.839 0.534 1.752 0.792 2.74 0.776 0.985-0.023 1.978-0.283 2.979-0.782v0c1.608-0.802 2.603-1.885 2.986-3.251 0.392-1.363 0.135-2.952-0.771-4.769v0l-1.822-3.654c-0.9-1.805-2.007-2.967-3.321-3.486-1.318-0.511-2.787-0.362-4.407 0.445v0c-0.965 0.481-1.726 1.095-2.284 1.841-0.549 0.749-0.908 1.572-1.079 2.468-0.162 0.899-0.124 1.809 0.113 2.732v0l-1.89-1.824 0.92-0.458c-0.225-0.973-0.265-1.942-0.122-2.907 0.153-0.961 0.565-1.873 1.236-2.735 0.662-0.865 1.639-1.62 2.931-2.264v0c2.299-1.146 4.406-1.304 6.322-0.474 1.91 0.833 3.541 2.607 4.895 5.322v0l1.581 3.172c1.366 2.74 1.802 5.129 1.309 7.167-0.488 2.035-1.92 3.645-4.297 4.829zM89.881 48.04l-3.154 1.572-12.879-25.837 3.171-1.581 2.16 4.668 0.521 0.956 4.013 8.05 0.302 0.652 2.771 5.311z" fill="#e26026" data-fill-palette-color="primary"></path><path d="M127.131 19.354l-7.959 1.108-0.416-2.986 7.87-1.096c1.892-0.263 3.197-0.929 3.915-1.996 0.718-1.068 0.962-2.429 0.732-4.083v0l-0.263-1.888c-0.235-1.687-0.839-2.937-1.812-3.749-0.972-0.805-2.398-1.077-4.277-0.816v0l-7.929 1.104-0.413-2.966 7.999-1.114c3.091-0.43 5.44-0.018 7.046 1.236 1.612 1.254 2.596 3.153 2.95 5.697v0l0.289 2.077c0.358 2.571-0.073 4.687-1.293 6.348-1.221 1.655-3.367 2.696-6.439 3.124zM121.67 29.497l-3.55 0.495-3.854-27.684 3.529-0.491 2.28 16.372 0.243 1.599z" fill="#e26026" data-fill-palette-color="primary"></path><path d="M159.6 29.192l-3.495-0.447 3.677-28.745 3.495 0.447z" fill="#e26026" data-fill-palette-color="primary"></path><path d="M193.705 40.617l-3.247-1.343 2.119-4.73 0.09-0.557 2.598-6.282 0.496-1.145c0.664-1.605 0.749-2.96 0.255-4.065-0.5-1.107-1.632-2.026-3.397-2.755v0c-1.414-0.585-2.796-0.919-4.145-1.002-1.342-0.08-2.582-0.042-3.72 0.114v0l1.448-2.664c0.644-0.094 1.383-0.148 2.217-0.163 0.832-0.009 1.745 0.074 2.739 0.248 0.994 0.174 2.035 0.485 3.124 0.935v0c1.414 0.585 2.545 1.255 3.393 2.009 0.848 0.754 1.445 1.581 1.793 2.481 0.342 0.898 0.464 1.863 0.368 2.896-0.096 1.033-0.378 2.116-0.846 3.248v0zM183.493 36.89v0c-1.956-0.809-3.26-1.903-3.914-3.283-0.651-1.386-0.612-2.961 0.119-4.726v0l0.24-0.581c0.753-1.82 1.878-2.947 3.375-3.379 1.497-0.432 3.544-0.316 6.143 0.349v0l6.611 1.697-0.804 2.466-6.382-1.625c-1.602-0.411-2.832-0.491-3.691-0.242-0.862 0.256-1.502 0.888-1.919 1.897v0l-0.134 0.322c-0.43 1.039-0.438 1.965-0.025 2.777 0.411 0.818 1.255 1.492 2.535 2.021v0c1.131 0.468 2.183 0.676 3.155 0.625 0.968-0.06 1.838-0.316 2.608-0.769 0.773-0.458 1.415-1.053 1.927-1.785v0l-0.413 2.433-0.627-0.259c-0.547 0.782-1.232 1.438-2.057 1.969-0.828 0.522-1.8 0.818-2.917 0.888-1.114 0.065-2.391-0.2-3.83-0.795z" fill="#e26026" data-fill-palette-color="primary"></path><path d="M223.192 62.503l-2.712-2.281 8.545-10.161c0.741-0.881 1.26-1.741 1.556-2.579 0.296-0.838 0.319-1.662 0.07-2.471-0.244-0.805-0.835-1.602-1.772-2.391v0c-0.861-0.724-1.741-1.186-2.642-1.387-0.901-0.21-1.782-0.203-2.641 0.023-0.855 0.22-1.654 0.618-2.398 1.192v0l1.13-2.337 0.588 0.495c0.795-0.584 1.674-0.992 2.636-1.227 0.953-0.233 1.958-0.214 3.016 0.059 1.062 0.267 2.141 0.861 3.236 1.782v0c1.294 1.088 2.133 2.215 2.517 3.382 0.383 1.157 0.373 2.353-0.03 3.587-0.409 1.23-1.176 2.515-2.303 3.855v0zM212.26 53.309l-2.713-2.281 13.737-16.334 2.712 2.281-3.404 3.815-0.014 0.249z" fill="#e26026" data-fill-palette-color="primary"></path><path d="M260.567 65.194l-22.932 15.98-2.077-2.981 22.932-15.98z" fill="#e26026" data-fill-palette-color="primary"></path><path d="M248.889 106.709v0c-0.557-1.554-0.77-2.888-0.639-4.002 0.125-1.112 0.584-2.051 1.377-2.815 0.8-0.767 1.904-1.403 3.314-1.909v0l12.687-4.545 1.181 3.298-12.291 4.404c-1.322 0.474-2.185 1.122-2.59 1.946-0.409 0.832-0.358 1.959 0.151 3.382v0c0.292 0.814 0.662 1.562 1.111 2.242 0.445 0.689 0.951 1.303 1.519 1.842v0l-2.978 0.717c-0.557-0.529-1.087-1.19-1.591-1.986-0.504-0.795-0.921-1.653-1.251-2.574zM268.131 105.159l-5.186-14.472 2.679-0.959 5.296 14.782zM267.625 96.348l-1.145-3.195 5.632-2.039 1.634 3.2z" fill="#e26026" data-fill-palette-color="primary"></path><path d="M12.778 193.244l-1.275-3.584 27.012-9.606 1.275 3.583zM40.313 192.764l-7.158-20.127 3-1.067 7.158 20.127z" fill="#e26026" data-fill-palette-color="primary"></path><path d="M39.71 215.318v0l1.848-2.348 0.558 0.718c1.832-0.694 3.538-0.871 5.117-0.529 1.579 0.341 2.938 1.316 4.076 2.924v0c0.285 0.402 0.509 0.782 0.672 1.139 0.162 0.367 0.288 0.706 0.378 1.017v0l-2.8 2.264c-0.125-0.384-0.293-0.788-0.503-1.21-0.204-0.426-0.469-0.87-0.796-1.332v0c-0.969-1.369-2.193-2.292-3.673-2.769-1.48-0.477-3.105-0.435-4.877 0.126zM28.645 223.374l-2.146-3.031 18.257-12.928 2.094 2.958-5.503 3.664-0.058 0.384z" fill="#e26026" data-fill-palette-color="primary"></path><path d="M52.55 249.574l-2.773-2.47 14.881-16.704 2.772 2.47zM68.481 228.899v0c-0.571-0.509-0.861-1.039-0.87-1.59-0.008-0.551 0.22-1.087 0.685-1.609v0l0.08-0.089c0.478-0.537 0.987-0.828 1.526-0.873 0.544-0.05 1.102 0.179 1.673 0.688v0c0.571 0.509 0.866 1.039 0.884 1.589 0.022 0.545-0.206 1.087-0.684 1.624v0l-0.08 0.089c-0.478 0.537-0.989 0.825-1.534 0.866-0.549 0.046-1.109-0.186-1.68-0.695z" fill="#e26026" data-fill-palette-color="primary"></path><path d="M82.867 268.856v0c-1.226-0.613-2.189-1.351-2.888-2.214-0.694-0.86-1.13-1.811-1.308-2.852-0.182-1.051-0.115-2.129 0.2-3.237v0l-1.08-0.54 2.513-2.639c-0.545 1.238-0.775 2.377-0.692 3.416 0.089 1.042 0.451 1.97 1.085 2.785 0.637 0.809 1.482 1.478 2.536 2.004v0c1.679 0.839 3.21 0.991 4.594 0.456 1.39-0.533 2.559-1.749 3.509-3.648v0l1.919-3.839c0.943-1.887 1.214-3.545 0.812-4.974-0.396-1.426-1.439-2.561-3.129-3.406v0c-1.012-0.506-2.006-0.757-2.983-0.754-0.979 0.009-1.896 0.228-2.75 0.656-0.854 0.429-1.595 1.033-2.223 1.813v0l0.339-2.732 0.965 0.482c0.673-0.81 1.46-1.454 2.361-1.933 0.896-0.482 1.917-0.716 3.063-0.701 1.143 0.021 2.39 0.369 3.741 1.044v0c2.405 1.202 3.865 2.866 4.38 4.991 0.506 2.128 0.049 4.612-1.371 7.451v0l-1.66 3.321c-1.434 2.869-3.159 4.741-5.174 5.617-2.018 0.866-4.271 0.677-6.759-0.567zM73.002 272.205l-3.304-1.652 13.529-27.063 3.322 1.661-2.553 4.75-0.478 1.045-4.209 8.419-0.357 0.67-2.701 5.67z" fill="#e26026" data-fill-palette-color="primary"></path><path d="M126.978 270.492l-8.325-1.157 0.435-3.134 8.236 1.144c1.984 0.276 3.49-0.019 4.517-0.884 1.034-0.864 1.672-2.166 1.913-3.907v0l0.275-1.977c0.246-1.773-0.008-3.206-0.763-4.299-0.75-1.085-2.107-1.764-4.071-2.037v0l-8.316-1.155 0.433-3.114 8.375 1.163c3.243 0.45 5.497 1.54 6.762 3.267 1.259 1.72 1.704 3.915 1.333 6.585v0l-0.302 2.175c-0.374 2.696-1.412 4.702-3.114 6.018-1.702 1.322-4.165 1.76-7.388 1.312zM118.578 279.161l-3.718-0.516 4.03-29.01 3.697 0.514-2.384 17.165-0.212 1.673z" fill="#e26026" data-fill-palette-color="primary"></path><path d="M162.475 279.536l-3.654 0.464-3.825-30.125 3.654-0.464z" fill="#e26026" data-fill-palette-color="primary"></path><path d="M202.244 266.554l-3.416 1.404-1.917-5.083-0.337-0.477-2.71-6.592-0.479-1.217c-0.693-1.686-1.632-2.754-2.816-3.202-1.187-0.455-2.707-0.301-4.56 0.46v0c-1.483 0.61-2.756 1.381-3.819 2.315-1.059 0.925-1.955 1.869-2.689 2.832v0l-0.876-3.05c0.401-0.546 0.909-1.133 1.522-1.759 0.607-0.624 1.345-1.236 2.213-1.838 0.868-0.602 1.874-1.138 3.019-1.608v0c1.483-0.61 2.819-0.95 4.005-1.021 1.19-0.065 2.243 0.11 3.162 0.524 0.918 0.414 1.726 1.039 2.422 1.875 0.69 0.839 1.28 1.852 1.768 3.04v0zM191.892 271.328v0c-2.05 0.843-3.827 0.991-5.333 0.444-1.503-0.541-2.635-1.737-3.397-3.59v0l-0.254-0.618c-0.784-1.908-0.778-3.573 0.019-4.995 0.795-1.428 2.399-2.854 4.814-4.278v0l6.172-3.627 1.213 2.426-5.939 3.51c-1.488 0.878-2.46 1.727-2.914 2.547-0.454 0.82-0.463 1.762-0.025 2.828v0l0.137 0.332c0.448 1.089 1.126 1.786 2.035 2.088 0.909 0.303 2.034 0.178 3.375-0.373v0c1.188-0.488 2.123-1.11 2.806-1.866 0.674-0.759 1.13-1.591 1.37-2.495 0.237-0.911 0.274-1.829 0.109-2.754v0l1.487 2.119-0.656 0.27c0.175 0.986 0.151 1.978-0.071 2.976-0.229 1.001-0.732 1.938-1.51 2.812-0.778 0.874-1.924 1.622-3.438 2.244z" fill="#e26026" data-fill-palette-color="primary"></path><path d="M237.528 241.04l-2.845 2.386-8.941-10.664c-0.774-0.923-1.566-1.614-2.376-2.072-0.815-0.454-1.66-0.628-2.533-0.52-0.874 0.107-1.803 0.574-2.787 1.399v0c-0.903 0.757-1.544 1.581-1.925 2.474-0.371 0.893-0.52 1.804-0.446 2.731 0.075 0.918 0.341 1.816 0.798 2.692v0l-2.206-1.59 0.62-0.519c-0.466-0.929-0.732-1.909-0.797-2.94-0.065-1.031 0.137-2.069 0.606-3.114 0.474-1.04 1.285-2.041 2.432-3.003v0c1.357-1.137 2.669-1.799 3.937-1.986 1.273-0.19 2.505 0.036 3.696 0.679 1.2 0.644 2.388 1.667 3.564 3.07v0zM226.062 250.654l-2.846 2.386-14.373-17.143 2.846-2.385 3.328 4.218 0.251 0.05z" fill="#e26026" data-fill-palette-color="primary"></path><path d="M231.511 201.697l23.981 16.814-2.183 3.114-23.981-16.814z" fill="#e26026" data-fill-palette-color="primary"></path><path d="M270.147 188.437v0c-0.588 1.62-1.307 2.839-2.155 3.657-0.847 0.811-1.848 1.258-3.004 1.341-1.152 0.092-2.466-0.131-3.943-0.667v0l-13.277-4.82 1.254-3.453 12.864 4.67c1.376 0.5 2.507 0.553 3.394 0.16 0.88-0.396 1.591-1.341 2.134-2.836v0c0.307-0.844 0.508-1.692 0.604-2.542 0.102-0.848 0.103-1.679 0.003-2.495v0l2.887 1.41c0.099 0.8 0.084 1.691-0.046 2.67-0.127 0.973-0.365 1.942-0.715 2.905zM253.593 176.82l-5.499 15.144-2.805-1.019 5.617-15.472zM248.109 184.259l-1.213 3.341-5.912-2.115 0.827-3.682z" fill="#e26026" data-fill-palette-color="primary"></path><path d="M3.296 143.529c0-6.179 5.009-11.188 11.188-11.188 6.179 0 11.188 5.009 11.188 11.188 0 6.179-5.009 11.188-11.188 11.188-6.179 0-11.188-5.009-11.188-11.188z" fill="#e26026" data-fill-palette-color="primary"></path><path d="M254.857 143.529c0-6.179 5.009-11.188 11.188-11.188 6.179 0 11.188 5.009 11.188 11.188 0 6.179-5.009 11.188-11.188 11.188-6.179 0-11.188-5.009-11.188-11.188z" fill="#e26026" data-fill-palette-color="primary"></path></g><g id="text-1"></g></svg></g></svg></g></svg></g><g></g></svg></g><defs></defs></svg><rect width="280" height="280" fill="none" stroke="none" visibility="hidden"></rect></g></svg></g></svg>